<?xml version="1.0" encoding="utf-8"?>
<!-- Generator: Adobe Illustrator 19.1.0, SVG Export Plug-In . SVG Version: 6.00 Build 0)  -->
<svg version="1.1" xmlns="http://www.w3.org/2000/svg" xmlns:xlink="http://www.w3.org/1999/xlink" x="0px" y="0px"
	 viewBox="0 0 1018.8 344.5" style="enable-background:new 0 0 1018.8 344.5;" xml:space="preserve">
<style type="text/css">
	.st0{fill:#FFFFFF;stroke:#666666;stroke-width:6;stroke-miterlimit:10;}
	.st1{fill:#8CC63F;stroke:#666666;stroke-width:6;stroke-miterlimit:10;}
	.st2{font-family:'MyriadPro-Regular';}
	.st3{font-size:40.5px;}
	.st4{fill:#999999;}
	.st5{fill:#FF6347;}
</style>
<g id="Layer_3">
	<polygon class="st0" points="84.4,284 3.5,143.5 84.4,3 246.4,3 327.3,143.5 246.4,284 	"/>
	<polygon class="st0" points="426.4,284 345.5,143.5 426.4,3 588.4,3 669.3,143.5 588.4,284 	"/>
	<polygon class="st1" points="772.4,284 691.5,143.5 772.4,3 934.4,3 1015.3,143.5 934.4,284 	"/>
	<text transform="matrix(1 0 0 1 114.8929 334.3644)" class="st2 st3">1968</text>
	<text transform="matrix(1 0 0 1 467.8929 334.3646)" class="st2 st3">2002</text>
	<text transform="matrix(1 0 0 1 815.8929 334.3645)" class="st2 st3">Result</text>
</g>
<g id="Layer_1">
	<circle class="st4" cx="94.8" cy="28.1" r="10.4"/>
	<circle class="st4" cx="180.6" cy="25.2" r="10.4"/>
	<circle class="st4" cx="238" cy="61.1" r="10.4"/>
	<circle class="st4" cx="219.7" cy="244.6" r="10.4"/>
	<circle class="st4" cx="99.5" cy="234.5" r="10.4"/>
	<circle class="st4" cx="167.5" cy="216.3" r="10.4"/>
	<circle class="st4" cx="64.5" cy="175.2" r="10.4"/>
	<circle class="st4" cx="121.8" cy="185.3" r="10.4"/>
	<circle class="st4" cx="238.1" cy="189" r="10.4"/>
	<circle class="st4" cx="104.5" cy="98.7" r="10.4"/>
	<circle class="st4" cx="609.8" cy="170.1" r="10.4"/>
	<circle class="st4" cx="433.3" cy="229.5" r="10.4"/>
	<circle class="st4" cx="487.8" cy="191" r="10.4"/>
	<circle class="st4" cx="501.1" cy="84.6" r="10.4"/>
</g>
<g id="Layer_2">
	<circle class="st5" cx="159.7" cy="102.3" r="10.4"/>
	<circle class="st5" cx="260.8" cy="111.9" r="10.4"/>
	<circle class="st5" cx="422.5" cy="84.6" r="10.4"/>
	<circle class="st5" cx="550.4" cy="197.4" r="10.4"/>
	<circle class="st5" cx="558.9" cy="28.4" r="10.4"/>
	<circle class="st5" cx="608.6" cy="119.9" r="10.4"/>
</g>
</svg>
